<?xml version="1.0" encoding="UTF-8"?>
<svg width="210mm" height="297mm" version="1.1" viewBox="0 0 210 297" xml:space="preserve" xmlns="http://www.w3.org/2000/svg"><g transform="matrix(1.4369 0 0 1.3677 -48.197 -27.277)" fill="#f9f9f9"><path d="m35.037 180.79h101.21v-7.8254h42.69v-19.319h-8.8807v10.477h-34.225v-82.661h34.749v9.9228h8.868v-19.615h-44.081v-8.541h-102.4zm-2.3053-117.05c1.292 116.64 1.4627 117.29 1.4627 117.29l17.491 0.0116 4.5568 0.076 3.217-0.29902" fill="#f9f9f9"/></g><path d="m146.29 70.417 0.41233 16.058 0.1161-1.5146 49.958-0.35638-1e-3 13.476 0.35478-0.0078-0.035 0.83822h12.302v-0.82786h0.1263l-0.0129-26.843-0.13234 0.0027 3.8e-4 -0.74556z" fill="#d00a3b" stroke-width=".37092"/><g transform="matrix(1.4369 0 0 1.3677 -48.135 -27.536)"><path d="m136.1 173.04-0.47712-8.6305v8.701h43.34l-0.11654-19.34-8.8649 0.029 0.015 10.476-34.36 0.0618-0.0436 0.058" fill="#d00a27" stroke-width=".26458"/></g></svg>
