<?xml version="1.0" encoding="UTF-8"?>
<svg width="210mm" height="297mm" version="1.1" viewBox="0 0 210 297" xml:space="preserve" xmlns="http://www.w3.org/2000/svg"><g stroke-width=".33995"><path d="m1.9207 182.01c9.1063 11.26 9.1144 11.393 9.1144 11.393l9.3219 8.0993 10.566 7.2153 20.887 8.5602v4.0901h149.4v-161.37h-149.28v3.2544l-11.667 3.9626-15.113 8.0115-11.959 9.9444-6.7295 7.8577-3.2604 5.418 13.38-0.44123 5.1602-5.8319 2.1406-2.122 3.5914-2.5992 4.8813-3.2866 4.1987-2.9806 7.0675-3.2724 7.8241-3.295-0.03092 130.35-3.9644-1.2387-7.4101-3.5033-8.7091-4.945-8.6371-6.6528-6.7739-6.768z" fill="#f9f9f9"/><path d="m3.1954 98.448 13.383-0.44268 0.37161-0.42225 4.7366-5.342 2.175-2.1749 2.8267-2.0493 3.3548-2.3065 3.1475-2.1366 3.0668-2.1752 0.35287-0.23859 2.0863-0.97466 3.7536-1.7349 4.2242-1.8183 4.7508-2.0065 0.5079-11.371-5.1462 1.7355-6.2033 2.1087-4.4794 2.3253-9.6712 5.1214-1.3417 0.71523-6.4779 5.4035-5.4659 4.5605-5.0391 5.8772-1.6886 1.9807z" fill="#d00a27"/><path d="m1.883 182 14.053-0.11033 7.5701 7.3705 9.1914 6.8684 10.081 5.3962 5.4463 2.4674 3.1895 0.97627 0.39736 12.31-6.3753-2.6166-5.4071-2.2144-7.5152-3.0867-1.6417-0.68477-3.0667-2.087-4.4891-3.0622-2.9586-2.0165-5.2707-4.562-4.0578-3.5256-3.7761-4.7995-3.7399-4.5975z" fill="#d00a27"/></g></svg>
