<?xml version="1.0" encoding="UTF-8" standalone="no"?>
<!-- Created with Inkscape (http://www.inkscape.org/) -->

<svg
   width="210mm"
   height="297mm"
   viewBox="0 0 210 297"
   version="1.1"
   id="svg5"
   xml:space="preserve"
   sodipodi:docname="carre2.svg"
   inkscape:version="1.2.2 (732a01da63, 2022-12-09, custom)"
   xmlns:inkscape="http://www.inkscape.org/namespaces/inkscape"
   xmlns:sodipodi="http://sodipodi.sourceforge.net/DTD/sodipodi-0.dtd"
   xmlns="http://www.w3.org/2000/svg"
   xmlns:svg="http://www.w3.org/2000/svg"><sodipodi:namedview
     id="namedview7"
     pagecolor="#505050"
     bordercolor="#ffffff"
     borderopacity="1"
     inkscape:showpageshadow="0"
     inkscape:pageopacity="0"
     inkscape:pagecheckerboard="1"
     inkscape:deskcolor="#505050"
     inkscape:document-units="mm"
     showgrid="false"
     inkscape:zoom="2.6156778"
     inkscape:cx="678.60041"
     inkscape:cy="758.1209"
     inkscape:window-width="1366"
     inkscape:window-height="635"
     inkscape:window-x="1920"
     inkscape:window-y="27"
     inkscape:window-maximized="1"
     inkscape:current-layer="g14487" /><defs
     id="defs2"><linearGradient
       id="linearGradient14697"
       inkscape:swatch="solid"><stop
         style="stop-color:#ffab9c;stop-opacity:1;"
         offset="0"
         id="stop14695" /></linearGradient><linearGradient
       inkscape:collect="always"
       id="linearGradient1124"><stop
         style="stop-color:#000000;stop-opacity:1;"
         offset="0"
         id="stop1120" /><stop
         style="stop-color:#000000;stop-opacity:0;"
         offset="1"
         id="stop1122" /></linearGradient></defs><g
     inkscape:label="Calque 1"
     inkscape:groupmode="layer"
     id="layer1"><g
       id="g14490"
       style="fill:#f9f9f9;opacity:1;stroke:none"
       transform="matrix(1.4368894,0,0,1.3677388,-48.196619,-27.277111)"><path
         style="fill:#f9f9f9;fill-opacity:1;stroke:none;stroke-width:0.264583"
         d="m 35.036824,180.79476 c 101.577676,0 101.214616,0 101.214616,0 v -7.82542 h 42.68968 v -19.31892 h -8.88068 v 10.47732 h -34.2252 V 81.466303 h 34.74882 v 9.922795 h 8.868 V 71.77432 H 135.37099 V 63.23337 H 32.967214 Z M 32.731514,63.74532 c 1.29197,116.63542 1.46271,117.2867 1.46271,117.2867 l 17.49055,0.0116 4.55678,0.076 3.21697,-0.29902"
         id="path1093" /></g><path
       style="fill:#d00a3b;fill-opacity:1;stroke-width:0.370916"
       d="m 146.28662,70.416962 0.41233,16.058342 0.1161,-1.514648 49.95764,-0.356378 -0.001,13.476183 0.35478,-0.0078 -0.035,0.83822 h 12.30238 v -0.827864 h 0.1263 l -0.0129,-26.842621 -0.13234,0.0027 3.8e-4,-0.745555 z"
       id="path4137" /><g
       id="g14487"
       inkscape:groupmode="layer"><g
         id="g14481"
         transform="matrix(1.4368894,0,0,1.3677388,-48.134595,-27.536114)"><path
           style="fill:#d00a27;fill-opacity:1;stroke-width:0.264583"
           d="m 136.09692,173.04085 -0.47712,-8.63046 v 8.70096 h 43.33974 l -0.11654,-19.34019 -8.86488,0.029 0.015,10.47649 -34.35962,0.0618 -0.0436,0.058"
           id="path13613" /></g></g></g></svg>
