<?xml version="1.0" encoding="UTF-8" standalone="no"?>
<!-- Created with Inkscape (http://www.inkscape.org/) -->

<svg
   width="210mm"
   height="297mm"
   viewBox="0 0 210 297"
   version="1.1"
   id="svg17732"
   xml:space="preserve"
   inkscape:version="1.2.2 (732a01da63, 2022-12-09, custom)"
   sodipodi:docname="carreRond.svg"
   xmlns:inkscape="http://www.inkscape.org/namespaces/inkscape"
   xmlns:sodipodi="http://sodipodi.sourceforge.net/DTD/sodipodi-0.dtd"
   xmlns="http://www.w3.org/2000/svg"
   xmlns:svg="http://www.w3.org/2000/svg"><sodipodi:namedview
     id="namedview17734"
     pagecolor="#505050"
     bordercolor="#ffffff"
     borderopacity="1"
     inkscape:showpageshadow="0"
     inkscape:pageopacity="0"
     inkscape:pagecheckerboard="1"
     inkscape:deskcolor="#505050"
     inkscape:document-units="mm"
     showgrid="false"
     inkscape:zoom="0.35355339"
     inkscape:cx="-202.23254"
     inkscape:cy="619.42554"
     inkscape:window-width="1366"
     inkscape:window-height="635"
     inkscape:window-x="1920"
     inkscape:window-y="27"
     inkscape:window-maximized="1"
     inkscape:current-layer="layer1" /><defs
     id="defs17729" /><g
     inkscape:label="Calque 1"
     inkscape:groupmode="layer"
     id="layer1"><path
       style="display:inline;fill:#f9f9f9;fill-opacity:1;stroke-width:0.339954"
       d="m 1.9206693,182.00772 c 9.1062597,11.25962 9.1144327,11.39273 9.1144327,11.39273 l 9.321924,8.09931 10.566448,7.21531 20.886984,8.56016 v 4.09009 H 201.20731 V 59.998749 H 51.92507 v 3.254359 l -11.666982,3.962559 -15.113311,8.011506 -11.959408,9.944377 -6.7295204,7.857651 -3.260408,5.418002 13.3799094,-0.441229 5.16025,-5.831866 2.140575,-2.122004 3.591357,-2.599152 4.881312,-3.286559 4.198664,-2.980644 7.067465,-3.272432 7.824061,-3.294993 -0.03092,130.351576 -3.964355,-1.23867 -7.410073,-3.50333 -8.709065,-4.94501 -8.637091,-6.65282 -6.773853,-6.76799 z"
       id="path18127" /><path
       style="fill:#d00a27;fill-opacity:1;stroke-width:0.339954"
       d="m 3.1954066,98.448307 13.3830404,-0.442681 0.37161,-0.422251 4.736625,-5.342026 2.174973,-2.174852 2.826681,-2.049293 3.354758,-2.306471 3.147502,-2.136568 3.066797,-2.175173 0.352872,-0.238586 2.086318,-0.974661 3.753562,-1.734878 4.224233,-1.818301 4.75076,-2.006498 0.507904,-11.37124 -5.146236,1.735453 -6.203288,2.108716 -4.47944,2.325304 -9.671183,5.121379 -1.341712,0.715228 -6.477921,5.403475 -5.465864,4.560482 -5.0391174,5.87717 -1.68863,1.980659 z"
       id="path19548" /><path
       style="fill:#d00a27;fill-opacity:1;stroke-width:0.339954"
       d="m 1.8829593,181.99858 14.0530627,-0.11033 7.570056,7.37053 9.191425,6.86841 10.080785,5.39616 5.446334,2.46743 3.189498,0.97627 0.397356,12.31046 -6.375322,-2.61659 -5.407084,-2.2144 -7.515227,-3.08667 -1.641681,-0.68477 -3.066749,-2.08696 -4.489081,-3.06225 -2.958568,-2.01654 -5.270714,-4.56203 -4.057794,-3.52561 -3.7761374,-4.79947 -3.739899,-4.5975 z"
       id="path21326" /></g></svg>
